<svg width="82" height="20" viewBox="0 0 82 20" fill="none" xmlns="http://www.w3.org/2000/svg">
<path fill-rule="evenodd" clip-rule="evenodd" d="M14.445 7.18336C14.445 7.18336 13.143 5.04984 11.1068 5.04984C10.2777 5.04984 9.66228 5.33848 9.10726 5.59879C8.65148 5.81255 8.23645 6.0072 7.77729 6.0072C7.20505 6.0072 6.76351 5.79303 6.2981 5.56729C5.77951 5.31575 5.23128 5.04984 4.43955 5.04984C2.72892 5.04984 0 6.71853 0 10.8856C0 14.8972 2.69534 19.83 4.78185 19.83C5.29133 19.83 5.66848 19.6617 6.07125 19.482C6.53272 19.2761 7.02781 19.0553 7.79408 19.0553C8.67898 19.0553 9.11386 19.2774 9.51787 19.4838C9.86832 19.6628 10.1956 19.83 10.7732 19.83C12.9845 19.83 14.9539 14.7695 14.9539 14.7695C14.9539 14.7695 12.4588 13.8943 12.4588 10.8856C12.4588 8.35059 14.445 7.18336 14.445 7.18336ZM10.757 0.800781C11.0571 2.84321 9.34652 5.36925 7.30219 5.28708C7.00166 2.68827 9.20486 0.937882 10.757 0.800781ZM26.8537 7.3457L25.2529 12.1165H28.4544L26.8801 7.3457H26.8537ZM26.1924 6.11426L22.5146 16.3436H23.7979L24.8562 13.2633H28.8514L29.8833 16.3436H31.2724L27.5814 6.11426H26.1924ZM32.0527 8.93559V19.1649H33.1772V15.354H33.2037C33.3271 15.5737 33.4793 15.7575 33.6601 15.9056C33.8409 16.0536 34.0327 16.1706 34.2356 16.2566C34.4384 16.3425 34.6435 16.4046 34.8507 16.4428C35.058 16.481 35.2454 16.5001 35.413 16.5001C35.9333 16.5001 36.3897 16.3998 36.7822 16.1993C37.1747 15.9987 37.501 15.7241 37.7611 15.3755C38.0213 15.0269 38.2153 14.6185 38.3432 14.1505C38.4711 13.6825 38.5351 13.1859 38.5351 12.6606C38.5351 12.1352 38.4689 11.6386 38.3366 11.1706C38.2043 10.7026 38.0081 10.2895 37.7479 9.9313C37.4877 9.57313 37.1614 9.28899 36.769 9.07886C36.3765 8.86873 35.9157 8.76367 35.3865 8.76367C34.9102 8.76367 34.4737 8.8568 34.0768 9.04304C33.6799 9.22929 33.3889 9.52776 33.2037 9.93847H33.1772V8.93559H32.0527ZM37.3446 12.5753C37.3446 12.9382 37.3093 13.2916 37.2388 13.6355C37.1682 13.9793 37.0535 14.285 36.8948 14.5524C36.736 14.8198 36.5266 15.0347 36.2664 15.1971C36.0062 15.3595 35.6821 15.4407 35.2941 15.4407C34.906 15.4407 34.5753 15.3619 34.3019 15.2043C34.0285 15.0467 33.8058 14.8389 33.6338 14.581C33.4618 14.3232 33.3361 14.0247 33.2568 13.6856C33.1774 13.3466 33.1377 12.9956 33.1377 12.6326C33.1377 12.2888 33.1752 11.9497 33.2501 11.6154C33.3251 11.2811 33.4464 10.9826 33.6139 10.72C33.7815 10.4573 33.9976 10.2448 34.2622 10.0824C34.5268 9.92008 34.8487 9.83889 35.2279 9.83889C35.5895 9.83889 35.9048 9.9153 36.1738 10.0681C36.4428 10.2209 36.6633 10.4263 36.8353 10.6842C37.0072 10.9421 37.1351 11.2357 37.2189 11.5653C37.3027 11.8948 37.3446 12.2315 37.3446 12.5753ZM39.8975 8.93559V19.1649H41.0219V15.354H41.0484C41.1719 15.5737 41.324 15.7575 41.5048 15.9056C41.6856 16.0536 41.8774 16.1706 42.0803 16.2566C42.2831 16.3425 42.4882 16.4046 42.6954 16.4428C42.9027 16.481 43.0901 16.5001 43.2577 16.5001C43.778 16.5001 44.2344 16.3998 44.6269 16.1993C45.0194 15.9987 45.3457 15.7241 45.6059 15.3755C45.866 15.0269 46.0601 14.6185 46.188 14.1505C46.3158 13.6825 46.3798 13.1859 46.3798 12.6606C46.3798 12.1352 46.3136 11.6386 46.1813 11.1706C46.049 10.7026 45.8528 10.2895 45.5926 9.9313C45.3325 9.57313 45.0061 9.28899 44.6137 9.07886C44.2212 8.86873 43.7604 8.76367 43.2312 8.76367C42.755 8.76367 42.3184 8.8568 41.9215 9.04304C41.5247 9.22929 41.2336 9.52776 41.0484 9.93847H41.0219V8.93559H39.8975ZM45.1893 12.5753C45.1893 12.9382 45.154 13.2916 45.0835 13.6355C45.0129 13.9793 44.8983 14.285 44.7395 14.5524C44.5808 14.8198 44.3713 15.0347 44.1111 15.1971C43.851 15.3595 43.5268 15.4407 43.1388 15.4407C42.7507 15.4407 42.42 15.3619 42.1466 15.2043C41.8732 15.0467 41.6505 14.8389 41.4785 14.581C41.3065 14.3232 41.1809 14.0247 41.1015 13.6856C41.0221 13.3466 40.9824 12.9956 40.9824 12.6326C40.9824 12.2888 41.0199 11.9497 41.0949 11.6154C41.1698 11.2811 41.2911 10.9826 41.4587 10.72C41.6262 10.4573 41.8423 10.2448 42.1069 10.0824C42.3715 9.92008 42.6934 9.83889 43.0726 9.83889C43.4342 9.83889 43.7495 9.9153 44.0185 10.0681C44.2875 10.2209 44.508 10.4263 44.68 10.6842C44.852 10.9421 44.9799 11.2357 45.0636 11.5653C45.1474 11.8948 45.1893 12.2315 45.1893 12.5753ZM57.0295 9.10894H58.2201C58.2025 8.54542 58.1033 8.0607 57.9225 7.65478C57.7417 7.24885 57.4947 6.91217 57.1816 6.64474C56.8685 6.3773 56.5047 6.18151 56.0902 6.05734C55.6757 5.93318 55.2259 5.87109 54.7408 5.87109C54.3087 5.87109 53.8876 5.93079 53.4775 6.05018C53.0674 6.16957 52.7013 6.35104 52.3794 6.59459C52.0575 6.83815 51.7996 7.14856 51.6055 7.52583C51.4115 7.90311 51.3145 8.34962 51.3145 8.86539C51.3145 9.3334 51.4005 9.7226 51.5724 10.033C51.7444 10.3434 51.9737 10.5965 52.2604 10.7923C52.547 10.9881 52.8711 11.1457 53.2327 11.2651C53.5943 11.3845 53.9625 11.4896 54.3374 11.5803C54.7122 11.671 55.0804 11.7594 55.442 11.8454C55.8036 11.9313 56.1277 12.0435 56.4143 12.182C56.701 12.3205 56.9303 12.4996 57.1023 12.7193C57.2742 12.939 57.3602 13.2255 57.3602 13.5789C57.3602 13.9514 57.2897 14.257 57.1486 14.4958C57.0075 14.7346 56.8223 14.9232 56.5929 15.0617C56.3636 15.2002 56.1057 15.2981 55.819 15.3554C55.5324 15.4127 55.248 15.4414 54.9657 15.4414C54.613 15.4414 54.269 15.3936 53.9339 15.2981C53.5987 15.2026 53.3055 15.0545 53.0541 14.854C52.8028 14.6534 52.5999 14.3979 52.4456 14.0875C52.2912 13.7771 52.2141 13.407 52.2141 12.9772H51.0234C51.0234 13.598 51.1271 14.1352 51.3343 14.5889C51.5416 15.0426 51.8238 15.4151 52.181 15.7064C52.5382 15.9977 52.9527 16.215 53.4245 16.3583C53.8964 16.5016 54.3969 16.5732 54.9261 16.5732C55.3582 16.5732 55.7926 16.5183 56.2291 16.4084C56.6657 16.2986 57.0604 16.1219 57.4132 15.8783C57.7659 15.6348 58.0548 15.3196 58.2797 14.9328C58.5046 14.5459 58.617 14.0803 58.617 13.5359C58.617 13.0297 58.531 12.6094 58.359 12.2752C58.1871 11.9409 57.9578 11.6639 57.6711 11.4442C57.3845 11.2245 57.0604 11.0502 56.6988 10.9213C56.3372 10.7923 55.969 10.6801 55.5941 10.5846C55.2193 10.4891 54.8511 10.4007 54.4895 10.3196C54.1279 10.2384 53.8038 10.1357 53.5171 10.0115C53.2305 9.88736 53.0012 9.72738 52.8292 9.53158C52.6572 9.33578 52.5713 9.08029 52.5713 8.7651C52.5713 8.43081 52.6308 8.15144 52.7499 7.92698C52.8689 7.70253 53.0277 7.52345 53.2261 7.38973C53.4245 7.25601 53.6516 7.1605 53.9074 7.1032C54.1632 7.04589 54.4233 7.01723 54.6879 7.01723C55.3406 7.01723 55.8764 7.18199 56.2953 7.51151C56.7142 7.84102 56.959 8.3735 57.0295 9.10894ZM61.5142 8.93647V6.71582H60.3898V8.93647H59.2256V10.011H60.3898V14.7245C60.3898 15.0683 60.4206 15.3453 60.4824 15.5554C60.5441 15.7656 60.6389 15.9279 60.7668 16.0425C60.8947 16.1572 61.0622 16.236 61.2695 16.2789C61.4768 16.3219 61.7259 16.3434 62.017 16.3434H62.8769V15.2689H62.3609C62.1845 15.2689 62.0412 15.2617 61.931 15.2474C61.8207 15.2331 61.7347 15.202 61.673 15.1543C61.6113 15.1065 61.5694 15.0397 61.5473 14.9537C61.5253 14.8677 61.5142 14.7531 61.5142 14.6099V10.011H62.8769V8.93647H61.5142ZM64.9404 12.6469C64.9404 12.198 64.9956 11.7993 65.1058 11.4507C65.216 11.102 65.3682 10.8083 65.5622 10.5696C65.7562 10.3308 65.9833 10.1493 66.2435 10.0251C66.5037 9.90097 66.7793 9.83889 67.0703 9.83889C67.3614 9.83889 67.637 9.90097 67.8972 10.0251C68.1573 10.1493 68.3844 10.3308 68.5785 10.5696C68.7725 10.8083 68.9246 11.102 69.0349 11.4507C69.1451 11.7993 69.2002 12.198 69.2002 12.6469C69.2002 13.0958 69.1451 13.4946 69.0349 13.8432C68.9246 14.1918 68.7725 14.4831 68.5785 14.7172C68.3844 14.9512 68.1573 15.1302 67.8972 15.2544C67.637 15.3786 67.3614 15.4407 67.0703 15.4407C66.7793 15.4407 66.5037 15.3786 66.2435 15.2544C65.9833 15.1302 65.7562 14.9512 65.5622 14.7172C65.3682 14.4831 65.216 14.1918 65.1058 13.8432C64.9956 13.4946 64.9404 13.0958 64.9404 12.6469ZM63.75 12.6462C63.75 13.1906 63.8206 13.6969 63.9617 14.1649C64.1028 14.6329 64.3144 15.0412 64.5967 15.3898C64.8789 15.7384 65.2273 16.0106 65.6418 16.2064C66.0563 16.4022 66.5325 16.5001 67.0705 16.5001C67.6173 16.5001 68.0958 16.4022 68.5059 16.2064C68.916 16.0106 69.2622 15.7384 69.5444 15.3898C69.8266 15.0412 70.0383 14.6329 70.1794 14.1649C70.3205 13.6969 70.3911 13.1906 70.3911 12.6462C70.3911 12.1018 70.3205 11.5932 70.1794 11.1204C70.0383 10.6476 69.8266 10.2369 69.5444 9.88832C69.2622 9.5397 68.916 9.26511 68.5059 9.06453C68.0958 8.86396 67.6173 8.76367 67.0705 8.76367C66.5325 8.76367 66.0563 8.86396 65.6418 9.06453C65.2273 9.26511 64.8789 9.5397 64.5967 9.88832C64.3144 10.2369 64.1028 10.6476 63.9617 11.1204C63.8206 11.5932 63.75 12.1018 63.75 12.6462ZM71.6738 8.93641V16.3433H72.7983V13.0482C72.7983 12.5706 72.8424 12.148 72.9306 11.7803C73.0188 11.4125 73.1599 11.0997 73.3539 10.8419C73.548 10.584 73.8037 10.3882 74.1212 10.2545C74.4387 10.1208 74.8224 10.0539 75.2722 10.0539V8.76449C74.6636 8.74538 74.1609 8.8791 73.764 9.16564C73.3672 9.45217 73.032 9.8963 72.7586 10.498H72.7322V8.93641H71.6738ZM80.6302 11.9306H76.7012C76.7188 11.6441 76.7761 11.3742 76.8732 11.1211C76.9702 10.868 77.1025 10.646 77.27 10.4549C77.4376 10.2639 77.6382 10.1135 77.872 10.0036C78.1057 9.89381 78.368 9.83889 78.6591 9.83889C78.9413 9.83889 79.1993 9.89381 79.433 10.0036C79.6667 10.1135 79.8696 10.2615 80.0415 10.4478C80.2135 10.634 80.3502 10.8561 80.4517 11.114C80.5531 11.3719 80.6126 11.6441 80.6302 11.9306ZM81.7152 13.9929H80.604C80.507 14.4801 80.3063 14.843 80.0021 15.0818C79.6978 15.3206 79.3075 15.4399 78.8313 15.4399C78.4609 15.4399 78.1389 15.3731 77.8655 15.2394C77.5921 15.1056 77.3672 14.9266 77.1909 14.7021C77.0145 14.4777 76.8866 14.2198 76.8072 13.9285C76.7278 13.6372 76.6926 13.3291 76.7014 13.0044H81.8211C81.8387 12.5555 81.8012 12.0827 81.7086 11.586C81.616 11.0894 81.4485 10.6309 81.2059 10.2107C80.9634 9.79042 80.6415 9.44419 80.2402 9.17198C79.8389 8.89977 79.334 8.76367 78.7254 8.76367C78.258 8.76367 77.8281 8.85918 77.4356 9.05021C77.0431 9.24123 76.7036 9.50866 76.4169 9.85251C76.1303 10.1963 75.9076 10.6023 75.7489 11.0703C75.5901 11.5383 75.5107 12.054 75.5107 12.6176C75.5284 13.1811 75.6056 13.7016 75.7423 14.1792C75.879 14.6567 76.084 15.0674 76.3574 15.4113C76.6308 15.7551 76.9682 16.0226 77.3694 16.2136C77.7707 16.4046 78.2448 16.5001 78.7916 16.5001C79.5677 16.5001 80.2115 16.29 80.7231 15.8697C81.2346 15.4495 81.5653 14.8239 81.7152 13.9929Z" fill="white"/>
</svg>
