<svg width="18" height="16" viewBox="0 0 18 16" fill="none" xmlns="http://www.w3.org/2000/svg">
<path fill-rule="evenodd" clip-rule="evenodd" d="M9.00002 0.444336C6.69154 0.444336 6.40208 0.45315 5.49546 0.490412C4.59073 0.527584 3.97284 0.65703 3.43218 0.84632C2.87323 1.04196 2.3992 1.30377 1.92663 1.72943C1.45409 2.15513 1.16345 2.58212 0.946256 3.08562C0.736118 3.57265 0.592416 4.12925 0.551151 4.94422C0.509785 5.76089 0.5 6.02164 0.5 8.1011C0.5 10.1805 0.509785 10.4413 0.551151 11.258C0.592416 12.0729 0.736118 12.6295 0.946256 13.1165C1.16345 13.62 1.45409 14.047 1.92663 14.4727C2.3992 14.8984 2.87323 15.1602 3.43218 15.3559C3.97284 15.5451 4.59073 15.6746 5.49546 15.7118C6.40208 15.749 6.69154 15.7578 9.00002 15.7578C11.3085 15.7578 11.5979 15.749 12.5045 15.7118C13.4093 15.6746 14.0272 15.5451 14.5678 15.3559C15.1268 15.1602 15.6008 14.8984 16.0734 14.4727C16.5459 14.047 16.8366 13.62 17.0538 13.1165C17.2639 12.6295 17.4076 12.0729 17.4488 11.258C17.4902 10.4413 17.5 10.1805 17.5 8.1011C17.5 6.02164 17.4902 5.76089 17.4488 4.94422C17.4076 4.12925 17.2639 3.57265 17.0538 3.08562C16.8366 2.58212 16.5459 2.15513 16.0734 1.72943C15.6008 1.30377 15.1268 1.04196 14.5678 0.84632C14.0272 0.65703 13.4093 0.527584 12.5045 0.490412C11.5979 0.45315 11.3085 0.444336 9.00002 0.444336ZM8.99974 1.82422C11.2693 1.82422 11.5382 1.83203 12.4344 1.86887C13.2632 1.90291 13.7133 2.02764 14.0128 2.1325C14.4095 2.2714 14.6927 2.43732 14.9901 2.70527C15.2876 2.97318 15.4718 3.22825 15.626 3.58564C15.7424 3.85545 15.8808 4.26086 15.9186 5.00739C15.9595 5.81476 15.9682 6.05694 15.9682 8.10139C15.9682 10.1458 15.9595 10.388 15.9186 11.1954C15.8808 11.9419 15.7424 12.3473 15.626 12.6171C15.4718 12.9745 15.2876 13.2296 14.9901 13.4975C14.6927 13.7654 14.4095 13.9313 14.0128 14.0702C13.7133 14.1751 13.2632 14.2998 12.4344 14.3339C11.5383 14.3707 11.2695 14.3785 8.99974 14.3785C6.72996 14.3785 6.46118 14.3707 5.56499 14.3339C4.73625 14.2998 4.28618 14.1751 3.98666 14.0702C3.58991 13.9313 3.30675 13.7654 3.00933 13.4975C2.7119 13.2296 2.52768 12.9745 2.37348 12.6171C2.25708 12.3473 2.1186 11.9419 2.08082 11.1954C2.03992 10.388 2.03125 10.1458 2.03125 8.10139C2.03125 6.05694 2.03992 5.81476 2.08082 5.00739C2.1186 4.26086 2.25708 3.85545 2.37348 3.58564C2.52768 3.22825 2.71187 2.97318 3.00933 2.70527C3.30675 2.43732 3.58991 2.2714 3.98666 2.1325C4.28618 2.02764 4.73625 1.90291 5.56499 1.86887C6.46128 1.83203 6.73013 1.82422 8.99974 1.82422ZM4.63477 8.1008C4.63477 5.92928 6.58896 4.16895 8.99964 4.16895C11.4103 4.16895 13.3645 5.92928 13.3645 8.1008C13.3645 10.2723 11.4103 12.0326 8.99964 12.0326C6.58896 12.0326 4.63477 10.2723 4.63477 8.1008ZM9.00035 10.6533C7.43551 10.6533 6.16699 9.51065 6.16699 8.10109C6.16699 6.6915 7.43551 5.54883 9.00035 5.54883C10.5651 5.54883 11.8337 6.6915 11.8337 8.10109C11.8337 9.51065 10.5651 10.6533 9.00035 10.6533ZM13.5376 4.93235C14.1009 4.93235 14.5576 4.521 14.5576 4.01355C14.5576 3.5061 14.1009 3.09473 13.5376 3.09473C12.9743 3.09473 12.5176 3.5061 12.5176 4.01355C12.5176 4.521 12.9743 4.93235 13.5376 4.93235Z" fill="#D7E1FE"/>
</svg>
