<svg width="691" height="395" viewBox="0 0 691 395" fill="none" xmlns="http://www.w3.org/2000/svg">
<path d="M8.67944 2C8.67944 2 -10.3057 20.4541 15.7389 45.7749C41.7835 71.0957 163.162 23.8875 199.357 38.9083C228.049 52.2124 195.828 92.9832 187.883 100.708C179.938 108.433 165.955 113.349 165.372 108.433C164.789 103.517 167.138 100.708 171.55 97.2749C230.046 51.7548 347.389 66.956 363.112 86.9749C400.19 134.183 382.624 229.999 318.532 245.766C245.263 263.791 185.686 264.296 172 319.772C165.11 347.699 178 407.366 266.5 388.874C394.5 358.216 423.841 333.398 523.5 333.398C588.5 333.398 659.5 361.623 714.5 402.5" stroke="#1220A5" stroke-width="3" stroke-linecap="round"/>
</svg>
