<svg width="20" height="16" viewBox="0 0 20 16" fill="none" xmlns="http://www.w3.org/2000/svg">
<path fill-rule="evenodd" clip-rule="evenodd" d="M19.7667 2.25718C19.0587 2.56467 18.2965 2.77261 17.497 2.86552C18.3135 2.3877 18.94 1.63004 19.2352 0.727489C18.4707 1.16992 17.6259 1.49178 16.7235 1.66433C16.0043 0.913308 14.9763 0.444336 13.8386 0.444336C11.6572 0.444336 9.88737 2.17533 9.88737 4.31004C9.88737 4.6131 9.92129 4.90732 9.98915 5.19047C6.70396 5.02898 3.79197 3.49155 1.84121 1.15001C1.50082 1.72295 1.30631 2.3877 1.30631 3.09558C1.30631 4.43613 2.00406 5.61962 3.06482 6.31313C2.41796 6.29432 1.80729 6.11846 1.27352 5.83088V5.87844C1.27352 7.75212 2.63622 9.31499 4.44561 9.66893C4.11427 9.75963 3.76483 9.80498 3.40408 9.80498C3.14963 9.80498 2.90084 9.78175 2.65997 9.7364C3.1632 11.2716 4.62203 12.3899 6.35226 12.4197C4.99974 13.4572 3.29438 14.0755 1.44315 14.0755C1.12424 14.0755 0.808728 14.0578 0.5 14.0224C2.24946 15.1174 4.328 15.7578 6.55921 15.7578C13.8307 15.7578 17.8057 9.86803 17.8057 4.7591C17.8057 4.59098 17.8023 4.42286 17.7956 4.25805C18.5679 3.71276 19.2385 3.03253 19.7667 2.25718Z" fill="#D7E1FE"/>
</svg>
