<svg width="22" height="11" viewBox="0 0 22 11" fill="none" xmlns="http://www.w3.org/2000/svg">
<path fill-rule="evenodd" clip-rule="evenodd" d="M12.0299 10.0137C12.0299 10.0137 12.4089 9.9791 12.6028 9.80663C12.7809 9.6481 12.7752 9.35062 12.7752 9.35062C12.7752 9.35062 12.7507 7.95762 13.5322 7.75249C14.303 7.55029 15.2925 9.09876 16.3412 9.69422C17.1343 10.1447 17.737 10.0461 17.737 10.0461L20.5414 10.0137C20.5414 10.0137 22.0084 9.9388 21.3128 8.98481C21.2559 8.90689 20.9076 8.27914 19.2275 6.98938C17.4689 5.63944 17.7047 5.85785 19.8229 3.52279C21.1129 2.10074 21.6286 1.23263 21.4674 0.860832C21.3139 0.506589 20.365 0.600165 20.365 0.600165L17.2074 0.616312C17.2074 0.616312 16.9732 0.589951 16.7997 0.675821C16.63 0.759795 16.521 0.955998 16.521 0.955998C16.521 0.955998 16.0211 2.05634 15.3548 2.99228C13.9488 4.96692 13.3865 5.07144 13.1566 4.94863C12.6219 4.66283 12.7555 3.80071 12.7555 3.18806C12.7555 1.27434 13.1065 0.476437 12.0721 0.269897C11.7289 0.201397 11.4761 0.156077 10.5983 0.148677C9.47151 0.139197 8.5181 0.151551 7.97814 0.370323C7.6189 0.515825 7.34174 0.839976 7.51064 0.85863C7.71939 0.881627 8.19192 0.964133 8.44246 1.24608C8.76613 1.6103 8.75481 2.42789 8.75481 2.42789C8.75481 2.42789 8.94079 4.68063 8.32059 4.96038C7.89502 5.1523 7.31113 4.7605 6.05756 2.96898C5.4154 2.05133 4.93037 1.03685 4.93037 1.03685C4.93037 1.03685 4.83698 0.847316 4.67015 0.74585C4.46783 0.622917 4.18513 0.583958 4.18513 0.583958L1.18447 0.600165C1.18447 0.600165 0.734125 0.610563 0.56863 0.772577C0.421399 0.916794 0.556872 1.21471 0.556872 1.21471C0.556872 1.21471 2.9059 5.7603 5.56596 8.05101C8.00528 10.1515 10.7747 10.0137 10.7747 10.0137H12.0299Z" fill="#D7E1FE"/>
</svg>
