<svg width="17" height="16" viewBox="0 0 17 16" fill="none" xmlns="http://www.w3.org/2000/svg">
<path d="M1.86792 7.32593C1.31564 7.32593 0.86792 7.77364 0.86792 8.32593C0.86792 8.87821 1.31564 9.32593 1.86792 9.32593V7.32593ZM16.443 9.03303C16.8335 8.64251 16.8335 8.00935 16.443 7.61882L10.079 1.25486C9.68847 0.864336 9.0553 0.864336 8.66478 1.25486C8.27425 1.64538 8.27425 2.27855 8.66478 2.66907L14.3216 8.32593L8.66478 13.9828C8.27425 14.3733 8.27425 15.0065 8.66478 15.397C9.0553 15.7875 9.68847 15.7875 10.079 15.397L16.443 9.03303ZM1.86792 9.32593H15.7358V7.32593H1.86792V9.32593Z" fill="white"/>
</svg>
