<svg width="20" height="20" viewBox="0 0 20 20" fill="none" xmlns="http://www.w3.org/2000/svg">
<path d="M5.00002 3.75H5.05204C5.56985 3.75 5.98956 3.33033 5.98956 2.81248V2.5V0.937516C5.98956 0.419673 5.56985 0 5.05204 0H5.00002C4.48221 0 4.0625 0.419673 4.0625 0.937516V2.5V2.81248C4.0625 3.33033 4.48221 3.75 5.00002 3.75Z" fill="#004972"/>
<path d="M14.6875 3.75H14.7395C15.2574 3.75 15.6771 3.33033 15.6771 2.81248V2.5V0.937516C15.677 0.419673 15.2574 0 14.7395 0H14.6875C14.1697 0 13.75 0.419673 13.75 0.937516V2.5V2.81248C13.75 3.33033 14.1697 3.75 14.6875 3.75Z" fill="#004972"/>
<path d="M17.5 2.5H16.6145V2.81248C16.6145 3.84641 15.7734 4.68748 14.7395 4.68748H14.6875C13.6536 4.68748 12.8125 3.84641 12.8125 2.81248V2.5H6.92703V2.81248C6.92703 3.84641 6.08592 4.68748 5.05203 4.68748H5C3.96608 4.68748 3.125 3.84641 3.125 2.81248V2.5H2.5C1.11938 2.5 0 3.61938 0 5V17.5C0 18.8806 1.11938 20 2.5 20H17.5C18.8806 20 20 18.8806 20 17.5V5C20 3.61938 18.8806 2.5 17.5 2.5ZM18.75 17.5C18.75 18.1897 18.1897 18.75 17.5 18.75H2.5C1.81095 18.75 1.25 18.1897 1.25 17.5V7.5H18.75V17.5Z" fill="#004972"/>
<path d="M4.99998 12.1615C5.8486 12.1615 6.53655 11.4736 6.53655 10.625C6.53655 9.77633 5.8486 9.08838 4.99998 9.08838C4.15135 9.08838 3.46341 9.77633 3.46341 10.625C3.46341 11.4736 4.15135 12.1615 4.99998 12.1615Z" fill="#004972"/>
<path d="M9.99998 12.1615C10.8486 12.1615 11.5365 11.4736 11.5365 10.625C11.5365 9.77633 10.8486 9.08838 9.99998 9.08838C9.15135 9.08838 8.46341 9.77633 8.46341 10.625C8.46341 11.4736 9.15135 12.1615 9.99998 12.1615Z" fill="#004972"/>
<path d="M15 12.1615C15.8486 12.1615 16.5365 11.4736 16.5365 10.625C16.5365 9.77633 15.8486 9.08838 15 9.08838C14.1514 9.08838 13.4634 9.77633 13.4634 10.625C13.4634 11.4736 14.1514 12.1615 15 12.1615Z" fill="#004972"/>
<path d="M4.99998 17.1615C5.8486 17.1615 6.53655 16.4736 6.53655 15.6249C6.53655 14.7763 5.8486 14.0884 4.99998 14.0884C4.15135 14.0884 3.46341 14.7763 3.46341 15.6249C3.46341 16.4736 4.15135 17.1615 4.99998 17.1615Z" fill="#004972"/>
<path d="M9.99998 17.1615C10.8486 17.1615 11.5365 16.4736 11.5365 15.6249C11.5365 14.7763 10.8486 14.0884 9.99998 14.0884C9.15135 14.0884 8.46341 14.7763 8.46341 15.6249C8.46341 16.4736 9.15135 17.1615 9.99998 17.1615Z" fill="#004972"/>
<path d="M15 17.1615C15.8486 17.1615 16.5365 16.4736 16.5365 15.6249C16.5365 14.7763 15.8486 14.0884 15 14.0884C14.1514 14.0884 13.4634 14.7763 13.4634 15.6249C13.4634 16.4736 14.1514 17.1615 15 17.1615Z" fill="#004972"/>
</svg>
