<svg width="26" height="26" viewBox="0 0 26 26" fill="none" xmlns="http://www.w3.org/2000/svg">
<g clip-path="url(#clip0_27:221)">
<path d="M24.3381 12.4941C24.2565 12.477 24.1794 12.4609 24.1109 12.443C23.334 12.241 22.9794 12.1303 22.7172 11.6241L21.7241 9.61342C21.4049 8.99726 20.5807 8.49595 19.8869 8.49595H18.1188V6.17416C18.1188 5.75728 17.7796 5.41809 17.3626 5.41809L5.04792 5.43046C4.64217 5.43046 4.3362 5.7529 4.3362 6.18052V6.86677H1.1815C0.530037 6.86683 0 7.39681 0 8.04832C0 8.69984 0.530037 9.22982 1.1815 9.22982H4.33614V10.3622H2.27069C1.61923 10.3622 1.08919 10.8923 1.08919 11.5437C1.08919 12.1952 1.61923 12.7252 2.27069 12.7252H4.33614V13.8577H3.35988C2.70842 13.8577 2.17839 14.3877 2.17839 15.0392C2.17839 15.6906 2.70842 16.2206 3.35988 16.2206H4.33614V17.4051C4.33614 17.8219 4.67534 18.1611 5.09222 18.1611H6.37321C6.57271 19.5284 7.7528 20.5819 9.17472 20.5819C10.5968 20.5819 11.7769 19.5284 11.9765 18.1611H17.1607C17.1876 18.1611 17.2152 18.1593 17.2428 18.1575C17.4408 19.5266 18.6216 20.5819 20.0447 20.5819C21.4668 20.5819 22.6469 19.5284 22.8465 18.1611H24.6865C25.4108 18.1611 26.0001 17.5719 26.0001 16.8477V14.6189C26 12.8428 24.9998 12.633 24.3381 12.4941ZM20.0447 16.7213C20.6125 16.7213 21.0744 17.183 21.0744 17.7506C21.0744 18.3182 20.6125 18.7799 20.0447 18.7799C19.4772 18.7799 19.0155 18.3182 19.0155 17.7506C19.0155 17.183 19.4772 16.7213 20.0447 16.7213ZM18.1188 12.334V9.59251H19.47C19.9893 9.59251 20.6299 9.98218 20.8676 10.441L21.7514 12.2302C21.7701 12.2664 21.7895 12.3009 21.8097 12.334H18.1188V12.334ZM10.2044 17.7506C10.2044 18.3181 9.74248 18.7799 9.17472 18.7799C8.60719 18.7799 8.14551 18.3181 8.14551 17.7506C8.14551 17.183 8.60719 16.7212 9.17472 16.7212C9.74248 16.7213 10.2044 17.183 10.2044 17.7506Z" fill="#004972"/>
</g>
<defs>
<clipPath id="clip0_27:221">
<rect width="26" height="26" fill="white"/>
</clipPath>
</defs>
</svg>
